<svg version="1.0" xmlns="http://www.w3.org/2000/svg" width="23.000000pt" height="22.000000pt" viewBox="0 0 23.000000 22.000000"><g transform="translate(0.000000,22.000000) scale(0.100000,-0.100000)"><path d="M56 165 c-53 -49 -16 -144 57 -145 40 0 64 15 82 54 15 31 15 37 0 65 -8 17 -20 31 -26 31 -8 0 -7 -5 1 -15 9 -11 10 -15 1 -15 -8 0 -10 -8 -5 -22 3 -13 3 -20 -2 -15 -4 4 -19 -3 -33 -17 -14 -13 -36 -26 -47 -28 -20 -5 -21 -3 -13 25 9 32 47 74 63 69 9 -3 26 16 26 31 0 4 -17 7 -39 7 -27 0 -46 -7 -65 -25z"/><path d="M108 119 c-22 -23 -23 -39 -3 -39 8 0 15 9 15 20 0 14 5 18 16 13 11 -4 15 -2 12 7 -7 21 -21 20 -40 -1z"/></g></svg>